<?xml version="1.0" encoding="UTF-8"?>
<svg id="Capa_1" data-name="Capa 1" xmlns="http://www.w3.org/2000/svg" viewBox="0 0 716 374.38">
  <defs>
    <style>
      .cls-1 {
        fill: #fff;
      }

      .cls-2 {
        fill: #901913;
        stroke: #1b3b6f;
        stroke-miterlimit: 10;
        stroke-width: 4px;
      }

      .cls-3 {
        fill: #1b3b6f;
      }
    </style>
  </defs>
  <rect class="cls-3" y="277.72" width="716" height="96.67"/>
  <g>
    <path class="cls-3" d="M35.76,75.24c.33,2.87,.5,5.47,.5,7.81,0,2-.17,4.9-.5,8.71,6.61-6.27,11.66-10.33,15.16-12.16,3.5-1.83,7.42-2.75,11.76-2.75,10.28,0,19.03,4.22,26.28,12.66,7.24,8.44,10.86,18.37,10.86,29.78,0,12.35-4.14,22.44-12.41,30.28-8.28,7.84-17.92,11.76-28.93,11.76-7.61,0-15.18-2.23-22.72-6.71-1.14,8.21-1.7,17.25-1.7,27.13,0,5.81,.23,10.31,.7,13.51l.3,3.9c1.27,4.2,4.64,6.84,10.11,7.91,1.87,.4,2.87,1.17,3,2.3l-.3,1-.7,.4c-8.23-.47-14.68-.7-19.36-.7-11.84,0-18.96,.1-21.37,.3-1.54,0-2.31-.57-2.31-1.7,0-1.07,.67-1.67,2-1.8,6.21-.67,10.09-2.07,11.66-4.2,1.57-2.14,2.57-11.6,3-28.38,.43-16.78,.65-27.28,.65-31.48l-.3-27.23,.1-16.22c0-8.41-.57-13.78-1.7-16.12-1.14-2.33-4.04-3.67-8.71-4-1.54-.13-2.3-.7-2.3-1.7,0-.6,.28-1.07,.85-1.4,.57-.33,3.6-.53,9.09-.6l17.28-.3Zm-.8,44.54c0,12.21,.3,20.02,.9,23.42s2.75,6.57,6.46,9.51c3.7,2.94,8.56,4.4,14.56,4.4,8.14,0,14.68-3.49,19.62-10.46,4.94-6.97,7.41-15.5,7.41-25.57,0-11.48-2.52-20.67-7.56-27.58-5.04-6.91-11.19-10.36-18.47-10.36s-12.66,2.94-16.77,8.81c-4.1,5.87-6.16,15.15-6.16,27.83Z"/>
    <path class="cls-3" d="M192.32,97.59c4.2-7.48,8.69-13.1,13.46-16.84,4.77-3.74,9.79-5.61,15.06-5.61,3.67,0,6.84,1.32,9.51,3.95,2.67,2.64,4,5.62,4,8.96,0,6.34-2.7,9.51-8.11,9.51-2.54,0-4.67-1.77-6.41-5.31-2.14-4.47-4.97-6.71-8.51-6.71-3.34,0-6.77,1.87-10.31,5.61-3.54,3.74-5.91,7.84-7.11,12.28-1.2,4.44-1.8,13.75-1.8,27.92,0,12.96,.53,20.4,1.6,22.3,1.07,1.9,3.8,3.12,8.21,3.66,1.2,.13,1.8,.6,1.8,1.4,0,1.4-1.57,2.1-4.7,2.1h-31.93c-2.27,0-3.4-.57-3.4-1.7,0-1.07,1.5-1.67,4.5-1.8,4.2-.27,6.81-1.57,7.81-3.91,1-2.34,1.5-10.96,1.5-25.86,0-21.85-.45-34.98-1.35-39.39-.9-4.41-4.25-6.75-10.06-7.02-2.4-.13-3.6-.77-3.6-1.9,0-.6,.25-1.05,.75-1.35,.5-.3,3.55-.62,9.16-.95l18.42-1c.47,3.61,.97,10.82,1.5,21.65Z"/>
    <path class="cls-3" d="M347.87,148.01c-3.27,4.74-7.17,8.29-11.71,10.66-4.54,2.37-9.68,3.55-15.42,3.55-6.74,0-12.03-1.8-15.87-5.41-3.84-3.6-5.76-8.35-5.76-14.22,0-4.4,1.15-8.51,3.45-12.31,2.3-3.81,4.94-6.54,7.91-8.21,2.97-1.67,8.19-3.77,15.67-6.31,10.68-3.54,17.08-6.47,19.22-8.81,2.13-2.34,3.2-5.38,3.2-9.13,0-5.96-1.4-10.59-4.2-13.91-2.8-3.31-6.77-4.97-11.91-4.97-4.2,0-7.37,.94-9.51,2.82-2.14,1.94-3.77,5.73-4.9,11.36-1.2,6.17-3.84,9.25-7.91,9.25-1.47,0-3.09-.73-4.85-2.2-1.77-1.47-2.65-3.64-2.65-6.51,0-5,2.77-9.36,8.31-13.06,5.54-3.7,13.15-5.56,22.82-5.56,7.67,0,13.8,1.09,18.37,3.26,4.57,2.17,7.44,4.66,8.61,7.47,1.17,2.81,1.75,8.22,1.75,16.23l-.6,26.46c0,10.22,.62,17.49,1.85,21.8,1.23,4.31,3.52,6.46,6.86,6.46,.67,0,1.6-.1,2.8-.3l1.7-.2c1.53,0,2.3,.56,2.3,1.67,0,2.56-6.57,3.83-19.72,3.83-3.8,0-6.36-.89-7.66-2.65-1.3-1.77-2.02-5.46-2.15-11.06Zm0-39.04c-2,2.6-6.54,5.77-13.61,9.51-7.01,3.6-12.05,7.04-15.11,10.31-3.07,3.34-4.6,7.34-4.6,12.01,0,4.2,1.25,7.77,3.75,10.71,2.5,2.94,5.62,4.4,9.36,4.4s7.51-1.18,10.91-3.55c3.4-2.37,5.92-5.39,7.56-9.06,1.63-3.67,2.45-9.11,2.45-16.32,0-5.41-.23-11.41-.7-18.02Z"/>
    <path class="cls-3" d="M568.08,74.84l-.1,22.52,.2,21.02v15.82l-.1,12.01c0,4.8,.78,7.86,2.35,9.16,1.57,1.3,3.92,2.02,7.06,2.15,3.67,.2,5.51,.97,5.51,2.3,0,1.07-.7,1.6-2.1,1.6-.54,0-1.14-.03-1.8-.1-6.21-.8-11.98-1.2-17.32-1.2-8.54,0-14.45,.27-17.72,.8-.67,.13-1.34,.2-2,.2-1.6,0-2.4-.6-2.4-1.8s1.85-2.03,5.57-2.5c3.71-.47,6.08-1.28,7.11-2.45,1.03-1.17,1.54-4.49,1.54-9.96l.7-41.44c0-11.08-.84-17.63-2.5-19.67-1.67-2.04-4.91-3.12-9.71-3.25-1.6,0-2.4-.53-2.4-1.6,0-.6,.27-1.07,.8-1.4,.53-.33,4.5-.77,11.91-1.3,7.41-.53,12.54-.83,15.42-.9Zm-.58-17.68l-21.94,9.72-6.84-15.44,21.94-9.72,6.84,15.44Z"/>
    <path class="cls-3" d="M708.92,134.35c0,7.73-2.87,14.37-8.59,19.93-5.73,5.56-12.52,8.34-20.38,8.34-4.66,0-10.23-1.5-16.69-4.5-3.53-1.6-5.63-2.4-6.29-2.4-1.13,0-2.13,.7-3,2.1-1.09,1.87-2.11,2.8-3.06,2.8-.82,0-1.33-.95-1.53-2.85-.21-1.9-.34-6.22-.41-12.96-.07-5.81-.17-9.54-.3-11.21,0-2.47,.65-3.7,1.96-3.7,.75,0,1.34,.63,1.75,1.9,2.59,7.61,6.23,14.06,10.91,19.37,4.68,5.3,10.18,7.96,16.49,7.96,4.45,0,8.4-1.38,11.86-4.15,3.45-2.77,5.18-6.52,5.18-11.26,0-7.34-6.36-13.85-19.08-19.52-8.72-3.9-14.55-6.76-17.48-8.56-2.93-1.8-5.23-4.24-6.89-7.31s-2.5-6.41-2.5-10.02c0-6.88,2.61-12.64,7.82-17.29,5.21-4.64,11.53-6.96,18.96-6.96,5.48,0,11.5,1.7,18.05,5.1,1.07,.53,2.01,.8,2.81,.8,.67,0,1.4-.55,2.21-1.65,.78-1.03,1.4-1.55,1.85-1.55,.58,0,1.04,.25,1.36,.75,.33,.5,.69,3.45,1.09,8.84,.4,5.39,.6,9.83,.6,13.31,0,2.14-.57,3.22-1.7,3.22-1,0-1.8-.96-2.4-2.89-.54-1.79-2.14-5.22-4.8-10.27-2.67-5.05-5.59-8.28-8.76-9.67-3.17-1.4-6.29-2.09-9.36-2.09-4.8,0-8.74,1.17-11.81,3.5-3.07,2.33-4.61,5.36-4.61,9.09,0,2.33,.63,4.43,1.9,6.3,1.27,1.86,2.45,3.26,3.55,4.2,1.1,.93,7.46,4.02,19.07,9.25,7.21,3.26,11.94,5.78,14.21,7.54,2.27,1.76,4.17,4.15,5.71,7.14,1.54,3,2.3,6.13,2.3,9.39Z"/>
  </g>
  <path class="cls-3" d="M400.44,22.6l-19.56,20.89c29.59,26.99,55.5,52.88,77.93,76.74,0,0,54.27,57.73,59.85,95.41,.27,1.8,1.49,10.83,1.63,10.81,.16-.02-.68-12.97-3.49-25.91-2.74-12.59-6.94-23.33-12.36-34.39-17.19-35.05-46.13-72.35-62.07-92.44-10.29-12.98-24.48-30.54-41.93-51.11Z"/>
  <path class="cls-2" d="M533.33,9.72c-24.88,23.57-51.05,50.89-77.23,82.31-43.77,52.54-76.88,103.74-101.88,148.8-28.59-17.48-57.19-34.96-85.78-52.44v18.22l90.5,136c58.13-110.96,116.26-221.93,174.39-332.89Z"/>
  <g>
    <path class="cls-1" d="M52.94,335.45l6.51,1.03c-.75,5.69-2.63,10.03-5.64,13.03-3.01,3-6.63,4.49-10.85,4.49-5.12,0-9.34-2.1-12.65-6.31-3.31-4.21-4.96-10.43-4.96-18.67s1.67-14.52,5.01-18.67c3.34-4.15,7.63-6.22,12.87-6.22,4.04,0,7.45,1.26,10.22,3.77,2.77,2.52,4.54,6.29,5.32,11.32l-6.42,1.17c-.63-3.22-1.72-5.63-3.28-7.22-1.56-1.6-3.43-2.39-5.62-2.39-3.26,0-5.97,1.45-8.11,4.33-2.14,2.89-3.21,7.48-3.21,13.77s1.03,11.2,3.08,14.11c2.05,2.91,4.68,4.36,7.88,4.36,2.52,0,4.66-.97,6.45-2.9,1.78-1.93,2.91-4.93,3.39-9.01Z"/>
    <path class="cls-1" d="M91.79,337.56l6.83,1.03c-1.14,5.09-3.2,8.93-6.18,11.52-2.98,2.59-6.67,3.89-11.07,3.89-5.54,0-10.03-2.1-13.45-6.31-3.43-4.21-5.14-10.28-5.14-18.22s1.73-14.52,5.19-18.84c3.46-4.33,7.84-6.49,13.14-6.49s9.28,2.13,12.67,6.38c3.38,4.25,5.08,10.41,5.08,18.46l-.04,2.16h-29.2c.27,5.36,1.51,9.4,3.73,12.13,2.22,2.73,4.91,4.09,8.09,4.09,4.97,0,8.43-3.26,10.38-9.79Zm-21.79-13.07h21.83c-.3-4.13-1.18-7.22-2.65-9.25-2.13-2.96-4.84-4.45-8.13-4.45-2.96,0-5.5,1.24-7.59,3.71-2.1,2.47-3.25,5.8-3.46,10Z"/>
    <path class="cls-1" d="M107.02,352.92v-47.71h5.97v6.74c1.43-2.62,3.19-4.58,5.27-5.87s4.46-1.94,7.15-1.94c2.09,0,4.03,.41,5.81,1.24,1.78,.82,3.21,1.9,4.31,3.23,1.09,1.33,1.91,3.06,2.44,5.19,.54,2.13,.81,5.39,.81,9.79v29.33h-6.6v-29.05c0-3.51-.3-6.07-.9-7.69-.6-1.62-1.54-2.87-2.81-3.76-1.27-.88-2.75-1.33-4.42-1.33-3.17,0-5.71,1.18-7.59,3.55s-2.83,6.43-2.83,12.19v26.08h-6.6Z"/>
    <path class="cls-1" d="M163.71,345.69l.9,7.14c-1.83,.48-3.47,.72-4.94,.72-2.31,0-4.16-.46-5.57-1.37-1.41-.91-2.37-2.16-2.9-3.75-.52-1.59-.79-4.75-.79-9.48v-27.45h-4.85v-6.29h4.85v-11.81l6.6-4.85v16.67h6.69v6.29h-6.69v27.9c0,2.58,.19,4.24,.58,4.99,.57,1.08,1.63,1.62,3.19,1.62,.75,0,1.72-.1,2.92-.31Z"/>
    <path class="cls-1" d="M169.96,352.92v-47.71h5.97v7.23c1.53-3.35,2.93-5.58,4.2-6.67,1.27-1.09,2.7-1.64,4.29-1.64,2.22,0,4.48,.87,6.78,2.61l-2.25,7.5c-1.65-1.17-3.25-1.75-4.81-1.75-1.41,0-2.7,.49-3.86,1.48s-1.99,2.37-2.47,4.13c-.84,3.08-1.26,6.36-1.26,9.84v24.98h-6.6Z"/>
    <path class="cls-1" d="M192.55,329.07c0-8.24,1.73-14.45,5.19-18.64,3.46-4.19,7.84-6.29,13.14-6.29s9.57,2.1,13.07,6.29c3.5,4.19,5.26,10.24,5.26,18.15,0,8.57-1.72,14.94-5.17,19.14-3.44,4.19-7.83,6.29-13.16,6.29s-9.61-2.1-13.09-6.31c-3.49-4.21-5.23-10.41-5.23-18.62Zm6.78-.02c0,6.18,1.12,10.77,3.37,13.79,2.25,3.01,5.03,4.52,8.36,4.52,3.11,0,5.79-1.52,8.02-4.57,2.23-3.04,3.35-7.62,3.35-13.74s-1.12-10.73-3.37-13.74-5.03-4.52-8.36-4.52c-3.14,0-5.83,1.51-8.04,4.54-2.22,3.03-3.32,7.6-3.32,13.72Z"/>
    <path class="cls-1" d="M283.34,352.92v-6.02c-1.2,2.31-2.74,4.07-4.63,5.28s-3.92,1.82-6.11,1.82c-4.61,0-8.6-2.18-11.97-6.54s-5.05-10.49-5.05-18.4c0-5.42,.75-10.02,2.24-13.79,1.5-3.77,3.49-6.57,5.99-8.4,2.5-1.83,5.27-2.74,8.32-2.74,2.18,0,4.21,.58,6.08,1.73,1.87,1.15,3.42,2.76,4.64,4.83v-23.63h6.69v65.86h-6.2Zm-20.98-23.81c0,6.17,1.07,10.75,3.21,13.75,2.14,3,4.64,4.49,7.48,4.49s5.26-1.44,7.33-4.31,3.1-7.22,3.1-13.03c0-6.68-1.03-11.55-3.1-14.62-2.07-3.07-4.68-4.6-7.82-4.6-2.79,0-5.19,1.48-7.19,4.42-2.01,2.95-3.01,7.58-3.01,13.9Z"/>
    <path class="cls-1" d="M326.69,337.56l6.83,1.03c-1.14,5.09-3.2,8.93-6.18,11.52-2.98,2.59-6.67,3.89-11.07,3.89-5.54,0-10.03-2.1-13.45-6.31-3.43-4.21-5.14-10.28-5.14-18.22s1.73-14.52,5.19-18.84c3.46-4.33,7.84-6.49,13.14-6.49s9.28,2.13,12.67,6.38c3.38,4.25,5.08,10.41,5.08,18.46l-.04,2.16h-29.2c.27,5.36,1.51,9.4,3.73,12.13,2.22,2.73,4.91,4.09,8.09,4.09,4.97,0,8.43-3.26,10.38-9.79Zm-21.79-13.07h21.83c-.3-4.13-1.18-7.22-2.65-9.25-2.13-2.96-4.84-4.45-8.13-4.45-2.96,0-5.5,1.24-7.59,3.71-2.1,2.47-3.25,5.8-3.46,10Z"/>
    <path class="cls-1" d="M385.72,352.92v-41.42h-5.88v-6.29h5.88v-5.08c0-3.74,.39-6.55,1.17-8.42,.78-1.87,1.97-3.3,3.58-4.29s3.63-1.48,6.06-1.48c1.89,0,3.96,.29,6.21,.85l-.99,7.01c-1.38-.3-2.68-.45-3.91-.45-1.98,0-3.39,.52-4.24,1.55s-1.28,3-1.28,5.91v4.4h7.64v6.29h-7.64v41.42h-6.6Z"/>
    <path class="cls-1" d="M402.34,329.07c0-8.24,1.73-14.45,5.19-18.64,3.46-4.19,7.84-6.29,13.14-6.29s9.57,2.1,13.07,6.29c3.5,4.19,5.26,10.24,5.26,18.15,0,8.57-1.72,14.94-5.17,19.14-3.44,4.19-7.83,6.29-13.16,6.29s-9.61-2.1-13.09-6.31c-3.49-4.21-5.23-10.41-5.23-18.62Zm6.78-.02c0,6.18,1.12,10.77,3.37,13.79,2.25,3.01,5.03,4.52,8.36,4.52,3.12,0,5.79-1.52,8.02-4.57,2.23-3.04,3.35-7.62,3.35-13.74s-1.12-10.73-3.37-13.74-5.03-4.52-8.36-4.52c-3.14,0-5.82,1.51-8.04,4.54s-3.32,7.6-3.32,13.72Z"/>
    <path class="cls-1" d="M446.81,352.92v-47.71h5.97v7.23c1.53-3.35,2.93-5.58,4.2-6.67,1.27-1.09,2.7-1.64,4.29-1.64,2.22,0,4.48,.87,6.78,2.61l-2.25,7.5c-1.65-1.17-3.25-1.75-4.81-1.75-1.41,0-2.7,.49-3.86,1.48s-1.99,2.37-2.47,4.13c-.84,3.08-1.26,6.36-1.26,9.84v24.98h-6.6Z"/>
    <path class="cls-1" d="M471.97,352.92v-47.71h5.93v6.65c1.32-2.47,3-4.38,5.07-5.72,2.06-1.34,4.32-2.01,6.77-2.01,2.75,0,5.07,.71,6.97,2.12,1.9,1.41,3.25,3.48,4.06,6.19,1.56-2.77,3.36-4.85,5.39-6.23s4.27-2.08,6.74-2.08c3.76,0,6.72,1.27,8.88,3.82,2.16,2.55,3.25,6.62,3.25,12.22v32.75h-6.6v-30.08c0-3.42-.25-5.84-.75-7.26s-1.3-2.53-2.42-3.31c-1.12-.78-2.36-1.17-3.75-1.17-2.86,0-5.19,1.13-7,3.4s-2.71,5.82-2.71,10.68v27.75h-6.6v-31.03c0-3.96-.61-6.75-1.82-8.36-1.21-1.62-2.88-2.43-5.01-2.43-3.03,0-5.41,1.22-7.17,3.67s-2.63,6.9-2.63,13.38v24.78h-6.6Z"/>
    <path class="cls-1" d="M560.24,347.03c-2.22,2.31-4.52,4.04-6.92,5.21-2.4,1.17-4.88,1.75-7.46,1.75-4.07,0-7.32-1.23-9.75-3.68-2.43-2.46-3.64-5.76-3.64-9.93,0-2.75,.57-5.2,1.71-7.32,1.14-2.13,2.7-3.79,4.67-4.99,1.98-1.2,4.97-2.08,8.98-2.65,5.39-.79,9.34-1.73,11.86-2.83l.04-2.07c0-3.26-.58-5.55-1.75-6.87-1.65-1.92-4.18-2.88-7.59-2.88-3.08,0-5.39,.64-6.92,1.92-1.53,1.28-2.65,3.68-3.37,7.2l-6.51-1.08c.93-5.12,2.81-8.85,5.64-11.19s6.88-3.5,12.15-3.5c4.1,0,7.32,.77,9.66,2.31,2.34,1.54,3.81,3.45,4.42,5.73,.61,2.28,.92,5.6,.92,9.97v10.78c0,7.55,.14,12.3,.43,14.26,.28,1.96,.85,3.87,1.68,5.73h-6.92c-.69-1.65-1.14-3.61-1.35-5.89Zm-.54-18.06c-2.43,1.2-6.04,2.22-10.83,3.05-2.79,.48-4.73,1.03-5.84,1.64-1.11,.61-1.97,1.48-2.58,2.61-.61,1.12-.92,2.42-.92,3.89,0,2.28,.7,4.1,2.11,5.46,1.41,1.36,3.35,2.04,5.84,2.04s4.51-.61,6.45-1.84c1.93-1.23,3.38-2.87,4.33-4.92,.96-2.05,1.44-5.04,1.44-8.96v-2.96Z"/>
    <path class="cls-1" d="M602.33,335.45l6.51,1.03c-.75,5.69-2.63,10.03-5.64,13.03-3.01,3-6.63,4.49-10.85,4.49-5.12,0-9.34-2.1-12.65-6.31-3.31-4.21-4.96-10.43-4.96-18.67s1.67-14.52,5.01-18.67c3.34-4.15,7.63-6.22,12.87-6.22,4.04,0,7.45,1.26,10.22,3.77,2.77,2.52,4.54,6.29,5.32,11.32l-6.42,1.17c-.63-3.22-1.72-5.63-3.28-7.22-1.56-1.6-3.43-2.39-5.62-2.39-3.26,0-5.97,1.45-8.11,4.33-2.14,2.89-3.21,7.48-3.21,13.77s1.03,11.2,3.08,14.11c2.05,2.91,4.68,4.36,7.88,4.36,2.52,0,4.66-.97,6.45-2.9,1.78-1.93,2.91-4.93,3.39-9.01Z"/>
    <path class="cls-1" d="M614.46,296.36v-9.3h6.6v9.3h-6.6Zm0,56.56v-47.71h6.6v47.71h-6.6Z"/>
    <path class="cls-1" d="M628.7,329.07c0-8.24,1.73-14.45,5.19-18.64,3.46-4.19,7.84-6.29,13.14-6.29s9.57,2.1,13.07,6.29c3.5,4.19,5.26,10.24,5.26,18.15,0,8.57-1.72,14.94-5.17,19.14-3.44,4.19-7.83,6.29-13.16,6.29s-9.61-2.1-13.09-6.31c-3.49-4.21-5.23-10.41-5.23-18.62Zm6.78-.02c0,6.18,1.12,10.77,3.37,13.79,2.25,3.01,5.03,4.52,8.36,4.52,3.11,0,5.79-1.52,8.02-4.57,2.23-3.04,3.35-7.62,3.35-13.74s-1.12-10.73-3.37-13.74-5.03-4.52-8.36-4.52c-3.14,0-5.83,1.51-8.04,4.54-2.22,3.03-3.32,7.6-3.32,13.72Zm6.65-29.76l4.9-12.58h8.67l-8.09,12.58h-5.48Z"/>
    <path class="cls-1" d="M673.17,352.92v-47.71h5.97v6.74c1.43-2.62,3.19-4.58,5.27-5.87,2.08-1.3,4.46-1.94,7.15-1.94,2.09,0,4.03,.41,5.81,1.24,1.78,.82,3.21,1.9,4.31,3.23,1.09,1.33,1.91,3.06,2.44,5.19,.54,2.13,.81,5.39,.81,9.79v29.33h-6.6v-29.05c0-3.51-.3-6.07-.9-7.69-.6-1.62-1.54-2.87-2.81-3.76-1.27-.88-2.75-1.33-4.42-1.33-3.17,0-5.71,1.18-7.59,3.55s-2.83,6.43-2.83,12.19v26.08h-6.6Z"/>
  </g>
</svg>