<svg width="716" height="375" viewBox="0 0 716 375" fill="none" xmlns="http://www.w3.org/2000/svg">
<g clip-path="url(#clip0_5002_8014)">
<path d="M716 277.72H0V374.39H716V277.72Z" fill="#B0B1B0"/>
<path d="M35.7599 75.24C36.0899 78.11 36.2599 80.71 36.2599 83.05C36.2599 85.05 36.0899 87.95 35.7599 91.76C42.3699 85.49 47.4199 81.43 50.9199 79.6C54.4199 77.77 58.3399 76.85 62.6799 76.85C72.9599 76.85 81.7099 81.07 88.9599 89.51C96.1999 97.95 99.8199 107.88 99.8199 119.29C99.8199 131.64 95.6799 141.73 87.4099 149.57C79.1299 157.41 69.4899 161.33 58.4799 161.33C50.8699 161.33 43.2999 159.1 35.7599 154.62C34.6199 162.83 34.0599 171.87 34.0599 181.75C34.0599 187.56 34.2899 192.06 34.7599 195.26L35.0599 199.16C36.3299 203.36 39.6999 206 45.1699 207.07C47.0399 207.47 48.0399 208.24 48.1699 209.37L47.8699 210.37L47.1699 210.77C38.9399 210.3 32.4899 210.07 27.8099 210.07C15.9699 210.07 8.84988 210.17 6.43988 210.37C4.89988 210.37 4.12988 209.8 4.12988 208.67C4.12988 207.6 4.79988 207 6.12988 206.87C12.3399 206.2 16.2199 204.8 17.7899 202.67C19.3599 200.53 20.3599 191.07 20.7899 174.29C21.2199 157.51 21.4399 147.01 21.4399 142.81L21.1399 115.58L21.2399 99.36C21.2399 90.95 20.6699 85.58 19.5399 83.24C18.3999 80.91 15.4999 79.57 10.8299 79.24C9.28988 79.11 8.52988 78.54 8.52988 77.54C8.52988 76.94 8.80988 76.47 9.37988 76.14C9.94988 75.81 12.9799 75.61 18.4699 75.54L35.7499 75.24H35.7599ZM34.9599 119.78C34.9599 131.99 35.2599 139.8 35.8599 143.2C36.4599 146.6 38.6099 149.77 42.3199 152.71C46.0199 155.65 50.8799 157.11 56.8799 157.11C65.0199 157.11 71.5599 153.62 76.4999 146.65C81.4399 139.68 83.9099 131.15 83.9099 121.08C83.9099 109.6 81.3899 100.41 76.3499 93.5C71.3099 86.59 65.1599 83.14 57.8799 83.14C50.5999 83.14 45.2199 86.08 41.1099 91.95C37.0099 97.82 34.9499 107.1 34.9499 119.78H34.9599Z" fill="#B0B1B0"/>
<path d="M192.32 97.59C196.52 90.11 201.01 84.49 205.78 80.75C210.55 77.01 215.57 75.14 220.84 75.14C224.51 75.14 227.68 76.46 230.35 79.09C233.02 81.73 234.35 84.71 234.35 88.05C234.35 94.39 231.65 97.56 226.24 97.56C223.7 97.56 221.57 95.79 219.83 92.25C217.69 87.78 214.86 85.54 211.32 85.54C207.98 85.54 204.55 87.41 201.01 91.15C197.47 94.89 195.1 98.99 193.9 103.43C192.7 107.87 192.1 117.18 192.1 131.35C192.1 144.31 192.63 151.75 193.7 153.65C194.77 155.55 197.5 156.77 201.91 157.31C203.11 157.44 203.71 157.91 203.71 158.71C203.71 160.11 202.14 160.81 199.01 160.81H167.08C164.81 160.81 163.68 160.24 163.68 159.11C163.68 158.04 165.18 157.44 168.18 157.31C172.38 157.04 174.99 155.74 175.99 153.4C176.99 151.06 177.49 142.44 177.49 127.54C177.49 105.69 177.04 92.56 176.14 88.15C175.24 83.74 171.89 81.4 166.08 81.13C163.68 81 162.48 80.36 162.48 79.23C162.48 78.63 162.73 78.18 163.23 77.88C163.73 77.58 166.78 77.26 172.39 76.93L190.81 75.93C191.28 79.54 191.78 86.75 192.31 97.58L192.32 97.59Z" fill="#B0B1B0"/>
<path d="M347.87 148.01C344.6 152.75 340.7 156.3 336.16 158.67C331.62 161.04 326.48 162.22 320.74 162.22C314 162.22 308.71 160.42 304.87 156.81C301.03 153.21 299.11 148.46 299.11 142.59C299.11 138.19 300.26 134.08 302.56 130.28C304.86 126.47 307.5 123.74 310.47 122.07C313.44 120.4 318.66 118.3 326.14 115.76C336.82 112.22 343.22 109.29 345.36 106.95C347.49 104.61 348.56 101.57 348.56 97.82C348.56 91.86 347.16 87.23 344.36 83.91C341.56 80.6 337.59 78.94 332.45 78.94C328.25 78.94 325.08 79.88 322.94 81.76C320.8 83.7 319.17 87.49 318.04 93.12C316.84 99.29 314.2 102.37 310.13 102.37C308.66 102.37 307.04 101.64 305.28 100.17C303.51 98.7 302.63 96.53 302.63 93.66C302.63 88.66 305.4 84.3 310.94 80.6C316.48 76.9 324.09 75.04 333.76 75.04C341.43 75.04 347.56 76.13 352.13 78.3C356.7 80.47 359.57 82.96 360.74 85.77C361.91 88.58 362.49 93.99 362.49 102L361.89 128.46C361.89 138.68 362.51 145.95 363.74 150.26C364.97 154.57 367.26 156.72 370.6 156.72C371.27 156.72 372.2 156.62 373.4 156.42L375.1 156.22C376.63 156.22 377.4 156.78 377.4 157.89C377.4 160.45 370.83 161.72 357.68 161.72C353.88 161.72 351.32 160.83 350.02 159.07C348.72 157.3 348 153.61 347.87 148.01ZM347.87 108.97C345.87 111.57 341.33 114.74 334.26 118.48C327.25 122.08 322.21 125.52 319.15 128.79C316.08 132.13 314.55 136.13 314.55 140.8C314.55 145 315.8 148.57 318.3 151.51C320.8 154.45 323.92 155.91 327.66 155.91C331.4 155.91 335.17 154.73 338.57 152.36C341.97 149.99 344.49 146.97 346.13 143.3C347.76 139.63 348.58 134.19 348.58 126.98C348.58 121.57 348.35 115.57 347.88 108.96L347.87 108.97Z" fill="#B0B1B0"/>
<path d="M568.08 74.84L567.98 97.36L568.18 118.38V134.2L568.08 146.21C568.08 151.01 568.86 154.07 570.43 155.37C572 156.67 574.35 157.39 577.49 157.52C581.16 157.72 583 158.49 583 159.82C583 160.89 582.3 161.42 580.9 161.42C580.36 161.42 579.76 161.39 579.1 161.32C572.89 160.52 567.12 160.12 561.78 160.12C553.24 160.12 547.33 160.39 544.06 160.92C543.39 161.05 542.72 161.12 542.06 161.12C540.46 161.12 539.66 160.52 539.66 159.32C539.66 158.12 541.51 157.29 545.23 156.82C548.94 156.35 551.31 155.54 552.34 154.37C553.37 153.2 553.88 149.88 553.88 144.41L554.58 102.97C554.58 91.89 553.74 85.34 552.08 83.3C550.41 81.26 547.17 80.18 542.37 80.05C540.77 80.05 539.97 79.52 539.97 78.45C539.97 77.85 540.24 77.38 540.77 77.05C541.3 76.72 545.27 76.28 552.68 75.75C560.09 75.22 565.22 74.92 568.1 74.85L568.08 74.84ZM567.5 57.16L545.56 66.88L538.72 51.44L560.66 41.72L567.5 57.16Z" fill="#B0B1B0"/>
<path d="M708.92 134.35C708.92 142.08 706.05 148.72 700.33 154.28C694.6 159.84 687.81 162.62 679.95 162.62C675.29 162.62 669.72 161.12 663.26 158.12C659.73 156.52 657.63 155.72 656.97 155.72C655.84 155.72 654.84 156.42 653.97 157.82C652.88 159.69 651.86 160.62 650.91 160.62C650.09 160.62 649.58 159.67 649.38 157.77C649.17 155.87 649.04 151.55 648.97 144.81C648.9 139 648.8 135.27 648.67 133.6C648.67 131.13 649.32 129.9 650.63 129.9C651.38 129.9 651.97 130.53 652.38 131.8C654.97 139.41 658.61 145.86 663.29 151.17C667.97 156.47 673.47 159.13 679.78 159.13C684.23 159.13 688.18 157.75 691.64 154.98C695.09 152.21 696.82 148.46 696.82 143.72C696.82 136.38 690.46 129.87 677.74 124.2C669.02 120.3 663.19 117.44 660.26 115.64C657.33 113.84 655.03 111.4 653.37 108.33C651.71 105.26 650.87 101.92 650.87 98.31C650.87 91.43 653.48 85.67 658.69 81.02C663.9 76.38 670.22 74.06 677.65 74.06C683.13 74.06 689.15 75.76 695.7 79.16C696.77 79.69 697.71 79.96 698.51 79.96C699.18 79.96 699.91 79.41 700.72 78.31C701.5 77.28 702.12 76.76 702.57 76.76C703.15 76.76 703.61 77.01 703.93 77.51C704.26 78.01 704.62 80.96 705.02 86.35C705.42 91.74 705.62 96.18 705.62 99.66C705.62 101.8 705.05 102.88 703.92 102.88C702.92 102.88 702.12 101.92 701.52 99.99C700.98 98.2 699.38 94.77 696.72 89.72C694.05 84.67 691.13 81.44 687.96 80.05C684.79 78.65 681.67 77.96 678.6 77.96C673.8 77.96 669.86 79.13 666.79 81.46C663.72 83.79 662.18 86.82 662.18 90.55C662.18 92.88 662.81 94.98 664.08 96.85C665.35 98.71 666.53 100.11 667.63 101.05C668.73 101.98 675.09 105.07 686.7 110.3C693.91 113.56 698.64 116.08 700.91 117.84C703.18 119.6 705.08 121.99 706.62 124.98C708.16 127.98 708.92 131.11 708.92 134.37V134.35Z" fill="#B0B1B0"/>
<path d="M400.44 22.6L380.88 43.49C410.47 70.48 436.38 96.37 458.81 120.23C458.81 120.23 513.08 177.96 518.66 215.64C518.93 217.44 520.15 226.47 520.29 226.45C520.45 226.43 519.61 213.48 516.8 200.54C514.06 187.95 509.86 177.21 504.44 166.15C487.25 131.1 458.31 93.8 442.37 73.71C432.08 60.73 417.89 43.17 400.44 22.6Z" fill="#B0B1B0"/>
<path d="M533.33 9.72C508.45 33.29 482.28 60.61 456.1 92.03C412.33 144.57 379.22 195.77 354.22 240.83C325.63 223.35 297.03 205.87 268.44 188.39V206.61L358.94 342.61C417.07 231.65 475.2 120.68 533.33 9.72Z" fill="#C7C7C7" stroke="#B0B1B0" stroke-width="4" stroke-miterlimit="10"/>
<path d="M52.9401 335.45L59.4501 336.48C58.7001 342.17 56.8201 346.51 53.8101 349.51C50.8001 352.51 47.1801 354 42.9601 354C37.8401 354 33.6201 351.9 30.3101 347.69C27.0001 343.48 25.3501 337.26 25.3501 329.02C25.3501 320.78 27.0201 314.5 30.3601 310.35C33.7001 306.2 37.9901 304.13 43.2301 304.13C47.2701 304.13 50.6801 305.39 53.4501 307.9C56.2201 310.42 57.9901 314.19 58.7701 319.22L52.3501 320.39C51.7201 317.17 50.6301 314.76 49.0701 313.17C47.5101 311.57 45.6401 310.78 43.4501 310.78C40.1901 310.78 37.4801 312.23 35.3401 315.11C33.2001 318 32.1301 322.59 32.1301 328.88C32.1301 335.17 33.1601 340.08 35.2101 342.99C37.2601 345.9 39.8901 347.35 43.0901 347.35C45.6101 347.35 47.7501 346.38 49.5401 344.45C51.3201 342.52 52.4501 339.52 52.9301 335.44L52.9401 335.45Z" fill="white"/>
<path d="M91.79 337.56L98.62 338.59C97.48 343.68 95.42 347.52 92.44 350.11C89.46 352.7 85.77 354 81.37 354C75.83 354 71.34 351.9 67.92 347.69C64.49 343.48 62.78 337.41 62.78 329.47C62.78 321.53 64.51 314.95 67.97 310.63C71.43 306.3 75.81 304.14 81.11 304.14C86.41 304.14 90.39 306.27 93.78 310.52C97.16 314.77 98.86 320.93 98.86 328.98L98.82 331.14H69.62C69.89 336.5 71.13 340.54 73.35 343.27C75.57 346 78.26 347.36 81.44 347.36C86.41 347.36 89.87 344.1 91.82 337.57L91.79 337.56ZM70 324.49H91.83C91.53 320.36 90.65 317.27 89.18 315.24C87.05 312.28 84.34 310.79 81.05 310.79C78.09 310.79 75.55 312.03 73.46 314.5C71.36 316.97 70.21 320.3 70 324.5V324.49Z" fill="white"/>
<path d="M107.02 352.92V305.21H112.99V311.95C114.42 309.33 116.18 307.37 118.26 306.08C120.34 304.79 122.72 304.14 125.41 304.14C127.5 304.14 129.44 304.55 131.22 305.38C133 306.2 134.43 307.28 135.53 308.61C136.62 309.94 137.44 311.67 137.97 313.8C138.51 315.93 138.78 319.19 138.78 323.59V352.92H132.18V323.87C132.18 320.36 131.88 317.8 131.28 316.18C130.68 314.56 129.74 313.31 128.47 312.42C127.2 311.54 125.72 311.09 124.05 311.09C120.88 311.09 118.34 312.27 116.46 314.64C114.58 317.01 113.63 321.07 113.63 326.83V352.91H107.03L107.02 352.92Z" fill="white"/>
<path d="M163.71 345.69L164.61 352.83C162.78 353.31 161.14 353.55 159.67 353.55C157.36 353.55 155.51 353.09 154.1 352.18C152.69 351.27 151.73 350.02 151.2 348.43C150.68 346.84 150.41 343.68 150.41 338.95V311.5H145.56V305.21H150.41V293.4L157.01 288.55V305.22H163.7V311.51H157.01V339.41C157.01 341.99 157.2 343.65 157.59 344.4C158.16 345.48 159.22 346.02 160.78 346.02C161.53 346.02 162.5 345.92 163.7 345.71L163.71 345.69Z" fill="white"/>
<path d="M169.96 352.92V305.21H175.93V312.44C177.46 309.09 178.86 306.86 180.13 305.77C181.4 304.68 182.83 304.13 184.42 304.13C186.64 304.13 188.9 305 191.2 306.74L188.95 314.24C187.3 313.07 185.7 312.49 184.14 312.49C182.73 312.49 181.44 312.98 180.28 313.97C179.12 314.96 178.29 316.34 177.81 318.1C176.97 321.18 176.55 324.46 176.55 327.94V352.92H169.95H169.96Z" fill="white"/>
<path d="M192.55 329.07C192.55 320.83 194.28 314.62 197.74 310.43C201.2 306.24 205.58 304.14 210.88 304.14C216.18 304.14 220.45 306.24 223.95 310.43C227.45 314.62 229.21 320.67 229.21 328.58C229.21 337.15 227.49 343.52 224.04 347.72C220.6 351.91 216.21 354.01 210.88 354.01C205.55 354.01 201.27 351.91 197.79 347.7C194.3 343.49 192.56 337.29 192.56 329.08L192.55 329.07ZM199.33 329.05C199.33 335.23 200.45 339.82 202.7 342.84C204.95 345.85 207.73 347.36 211.06 347.36C214.17 347.36 216.85 345.84 219.08 342.79C221.31 339.75 222.43 335.17 222.43 329.05C222.43 322.93 221.31 318.32 219.06 315.31C216.81 312.3 214.03 310.79 210.7 310.79C207.56 310.79 204.87 312.3 202.66 315.33C200.44 318.36 199.34 322.93 199.34 329.05H199.33Z" fill="white"/>
<path d="M283.34 352.92V346.9C282.14 349.21 280.6 350.97 278.71 352.18C276.82 353.39 274.79 354 272.6 354C267.99 354 264 351.82 260.63 347.46C257.26 343.1 255.58 336.97 255.58 329.06C255.58 323.64 256.33 319.04 257.82 315.27C259.32 311.5 261.31 308.7 263.81 306.87C266.31 305.04 269.08 304.13 272.13 304.13C274.31 304.13 276.34 304.71 278.21 305.86C280.08 307.01 281.63 308.62 282.85 310.69V287.06H289.54V352.92H283.34ZM262.36 329.11C262.36 335.28 263.43 339.86 265.57 342.86C267.71 345.86 270.21 347.35 273.05 347.35C275.89 347.35 278.31 345.91 280.38 343.04C282.45 340.17 283.48 335.82 283.48 330.01C283.48 323.33 282.45 318.46 280.38 315.39C278.31 312.32 275.7 310.79 272.56 310.79C269.77 310.79 267.37 312.27 265.37 315.21C263.36 318.16 262.36 322.79 262.36 329.11Z" fill="white"/>
<path d="M326.69 337.56L333.52 338.59C332.38 343.68 330.32 347.52 327.34 350.11C324.36 352.7 320.67 354 316.27 354C310.73 354 306.24 351.9 302.82 347.69C299.39 343.48 297.68 337.41 297.68 329.47C297.68 321.53 299.41 314.95 302.87 310.63C306.33 306.3 310.71 304.14 316.01 304.14C321.31 304.14 325.29 306.27 328.68 310.52C332.06 314.77 333.76 320.93 333.76 328.98L333.72 331.14H304.52C304.79 336.5 306.03 340.54 308.25 343.27C310.47 346 313.16 347.36 316.34 347.36C321.31 347.36 324.77 344.1 326.72 337.57L326.69 337.56ZM304.9 324.49H326.73C326.43 320.36 325.55 317.27 324.08 315.24C321.95 312.28 319.24 310.79 315.95 310.79C312.99 310.79 310.45 312.03 308.36 314.5C306.26 316.97 305.11 320.3 304.9 324.5V324.49Z" fill="white"/>
<path d="M385.72 352.92V311.5H379.84V305.21H385.72V300.13C385.72 296.39 386.11 293.58 386.89 291.71C387.67 289.84 388.86 288.41 390.47 287.42C392.08 286.43 394.1 285.94 396.53 285.94C398.42 285.94 400.49 286.23 402.74 286.79L401.75 293.8C400.37 293.5 399.07 293.35 397.84 293.35C395.86 293.35 394.45 293.87 393.6 294.9C392.75 295.93 392.32 297.9 392.32 300.81V305.21H399.96V311.5H392.32V352.92H385.72Z" fill="white"/>
<path d="M402.34 329.07C402.34 320.83 404.07 314.62 407.53 310.43C410.99 306.24 415.37 304.14 420.67 304.14C425.97 304.14 430.24 306.24 433.74 310.43C437.24 314.62 439 320.67 439 328.58C439 337.15 437.28 343.52 433.83 347.72C430.39 351.91 426 354.01 420.67 354.01C415.34 354.01 411.06 351.91 407.58 347.7C404.09 343.49 402.35 337.29 402.35 329.08L402.34 329.07ZM409.12 329.05C409.12 335.23 410.24 339.82 412.49 342.84C414.74 345.85 417.52 347.36 420.85 347.36C423.97 347.36 426.64 345.84 428.87 342.79C431.1 339.75 432.22 335.17 432.22 329.05C432.22 322.93 431.1 318.32 428.85 315.31C426.6 312.3 423.82 310.79 420.49 310.79C417.35 310.79 414.67 312.3 412.45 315.33C410.23 318.36 409.13 322.93 409.13 329.05H409.12Z" fill="white"/>
<path d="M446.81 352.92V305.21H452.78V312.44C454.31 309.09 455.71 306.86 456.98 305.77C458.25 304.68 459.68 304.13 461.27 304.13C463.49 304.13 465.75 305 468.05 306.74L465.8 314.24C464.15 313.07 462.55 312.49 460.99 312.49C459.58 312.49 458.29 312.98 457.13 313.97C455.97 314.96 455.14 316.34 454.66 318.1C453.82 321.18 453.4 324.46 453.4 327.94V352.92H446.8H446.81Z" fill="white"/>
<path d="M471.97 352.92V305.21H477.9V311.86C479.22 309.39 480.9 307.48 482.97 306.14C485.03 304.8 487.29 304.13 489.74 304.13C492.49 304.13 494.81 304.84 496.71 306.25C498.61 307.66 499.96 309.73 500.77 312.44C502.33 309.67 504.13 307.59 506.16 306.21C508.19 304.83 510.43 304.13 512.9 304.13C516.66 304.13 519.62 305.4 521.78 307.95C523.94 310.5 525.03 314.57 525.03 320.17V352.92H518.43V322.84C518.43 319.42 518.18 317 517.68 315.58C517.18 314.16 516.38 313.05 515.26 312.27C514.14 311.49 512.9 311.1 511.51 311.1C508.65 311.1 506.32 312.23 504.51 314.5C502.7 316.77 501.8 320.32 501.8 325.18V352.93H495.2V321.9C495.2 317.94 494.59 315.15 493.38 313.54C492.17 311.92 490.5 311.11 488.37 311.11C485.34 311.11 482.96 312.33 481.2 314.78C479.44 317.23 478.57 321.68 478.57 328.16V352.94H471.97V352.92Z" fill="white"/>
<path d="M560.24 347.03C558.02 349.34 555.72 351.07 553.32 352.24C550.92 353.41 548.44 353.99 545.86 353.99C541.79 353.99 538.54 352.76 536.11 350.31C533.68 347.85 532.47 344.55 532.47 340.38C532.47 337.63 533.04 335.18 534.18 333.06C535.32 330.93 536.88 329.27 538.85 328.07C540.83 326.87 543.82 325.99 547.83 325.42C553.22 324.63 557.17 323.69 559.69 322.59L559.73 320.52C559.73 317.26 559.15 314.97 557.98 313.65C556.33 311.73 553.8 310.77 550.39 310.77C547.31 310.77 545 311.41 543.47 312.69C541.94 313.97 540.82 316.37 540.1 319.89L533.59 318.81C534.52 313.69 536.4 309.96 539.23 307.62C542.06 305.28 546.11 304.12 551.38 304.12C555.48 304.12 558.7 304.89 561.04 306.43C563.38 307.97 564.85 309.88 565.46 312.16C566.07 314.44 566.38 317.76 566.38 322.13V332.91C566.38 340.46 566.52 345.21 566.81 347.17C567.09 349.13 567.66 351.04 568.49 352.9H561.57C560.88 351.25 560.43 349.29 560.22 347.01L560.24 347.03ZM559.7 328.97C557.27 330.17 553.66 331.19 548.87 332.02C546.08 332.5 544.14 333.05 543.03 333.66C541.92 334.27 541.06 335.14 540.45 336.27C539.84 337.39 539.53 338.69 539.53 340.16C539.53 342.44 540.23 344.26 541.64 345.62C543.05 346.98 544.99 347.66 547.48 347.66C549.97 347.66 551.99 347.05 553.93 345.82C555.86 344.59 557.31 342.95 558.26 340.9C559.22 338.85 559.7 335.86 559.7 331.94V328.98V328.97Z" fill="white"/>
<path d="M602.33 335.45L608.84 336.48C608.09 342.17 606.21 346.51 603.2 349.51C600.19 352.51 596.57 354 592.35 354C587.23 354 583.01 351.9 579.7 347.69C576.39 343.48 574.74 337.26 574.74 329.02C574.74 320.78 576.41 314.5 579.75 310.35C583.09 306.2 587.38 304.13 592.62 304.13C596.66 304.13 600.07 305.39 602.84 307.9C605.61 310.42 607.38 314.19 608.16 319.22L601.74 320.39C601.11 317.17 600.02 314.76 598.46 313.17C596.9 311.57 595.03 310.78 592.84 310.78C589.58 310.78 586.87 312.23 584.73 315.11C582.59 318 581.52 322.59 581.52 328.88C581.52 335.17 582.55 340.08 584.6 342.99C586.65 345.9 589.28 347.35 592.48 347.35C595 347.35 597.14 346.38 598.93 344.45C600.71 342.52 601.84 339.52 602.32 335.44L602.33 335.45Z" fill="white"/>
<path d="M614.46 296.36V287.06H621.06V296.36H614.46ZM614.46 352.92V305.21H621.06V352.92H614.46Z" fill="white"/>
<path d="M628.7 329.07C628.7 320.83 630.43 314.62 633.89 310.43C637.35 306.24 641.73 304.14 647.03 304.14C652.33 304.14 656.6 306.24 660.1 310.43C663.6 314.62 665.36 320.67 665.36 328.58C665.36 337.15 663.64 343.52 660.19 347.72C656.75 351.91 652.36 354.01 647.03 354.01C641.7 354.01 637.42 351.91 633.94 347.7C630.45 343.49 628.71 337.29 628.71 329.08L628.7 329.07ZM635.48 329.05C635.48 335.23 636.6 339.82 638.85 342.84C641.1 345.85 643.88 347.36 647.21 347.36C650.32 347.36 653 345.84 655.23 342.79C657.46 339.75 658.58 335.17 658.58 329.05C658.58 322.93 657.46 318.32 655.21 315.31C652.96 312.3 650.18 310.79 646.85 310.79C643.71 310.79 641.02 312.3 638.81 315.33C636.59 318.36 635.49 322.93 635.49 329.05H635.48ZM642.13 299.29L647.03 286.71H655.7L647.61 299.29H642.13Z" fill="white"/>
<path d="M673.17 352.92V305.21H679.14V311.95C680.57 309.33 682.33 307.37 684.41 306.08C686.49 304.78 688.87 304.14 691.56 304.14C693.65 304.14 695.59 304.55 697.37 305.38C699.15 306.2 700.58 307.28 701.68 308.61C702.77 309.94 703.59 311.67 704.12 313.8C704.66 315.93 704.93 319.19 704.93 323.59V352.92H698.33V323.87C698.33 320.36 698.03 317.8 697.43 316.18C696.83 314.56 695.89 313.31 694.62 312.42C693.35 311.54 691.87 311.09 690.2 311.09C687.03 311.09 684.49 312.27 682.61 314.64C680.73 317.01 679.78 321.07 679.78 326.83V352.91H673.18L673.17 352.92Z" fill="white"/>
</g>
<defs>
<clipPath id="clip0_5002_8014">
<rect width="716" height="374.38" fill="white"/>
</clipPath>
</defs>
</svg>
